<svg height="32" viewBox="0 0 32 32" width="32" xmlns="http://www.w3.org/2000/svg"><path d="m29.414 7.917c-.308-1.623-.843-3.246-1.835-4.586-.857-1.157-2.049-2.045-3.385-2.576s-2.87-.741-4.283-.43c-.833.183-1.611.554-2.27 1.095-.62.509-1.136 1.13-1.58 1.795-.929 1.388-1.587 2.936-2.243 4.466-.68 1.585-1.377 3.169-2.299 4.632-.456.728-.996 1.417-1.583 2.044-.548.585-1.167 1.093-1.835 1.536.026-.017.029-.019-.002.002-.904.599-1.775 1.274-2.501 2.084-.697.778-1.299 1.74-1.335 2.813-.018.551.124 1.092.38 1.578.36.683.958 1.204 1.62 1.586.722.416 1.518.664 2.33.829.148.03.286.065.425.119.13.051.271.104.38.192.119.096.236.19.33.311.117.15.22.313.3.486.328.705.537 1.475 1.073 2.063.239.263.527.447.866.551.351.107.717.154 1.083.155.737.003 1.46-.164 2.18-.3.364-.069.729-.13 1.099-.163.153-.013.303-.024.456-.008.062.006.126.007.186.022.253.064.41.26.481.364.165.243.267.521.374.793.188.478.362.97.639 1.405.199.312.452.566.774.749.289.164.61.262.941.288.739.058 1.484-.208 2.105-.592.699-.432 1.287-1.026 1.802-1.66.513-.632.965-1.314 1.381-2.012.851-1.428 1.533-2.951 2.099-4.512.581-1.604 1.062-3.245 1.422-4.912.362-1.673.603-3.377.703-5.087.101-1.711.039-3.432-.28-5.119zm-8.309-.952c-.155.652-.581 1.267-1.166 1.604-.556.32-1.307.394-1.898.125-.534-.243-.855-.774-.8-1.362.06-.643.508-1.2 1.038-1.538.192-.123.401-.22.618-.29-.218.07-.304.097-.312.1.01-.003.161-.052.313-.1 0 0 0 0-.001 0s.001 0 .001 0c.543-.174.272-.087.001 0 .543-.174 1.242-.306 1.765-.001.51.297.565.942.441 1.464zm5.368 2.367c-.14.562-.526 1.098-1.114 1.237-.605.143-1.197-.182-1.568-.647-.451-.564-.593-1.286-.534-1.993.046-.55.239-1.238.825-1.431.134-.044.278-.057.419-.047-.095-.007-.19-.013-.235-.016.035.002.108.007.235.016.045.003.082.006.115.008.038.003.072.005.097.007-.023-.002-.056-.004-.097-.007-.036-.002-.075-.005-.114-.008.622.044 1.195.466 1.561.948.424.557.579 1.251.409 1.933zm-18.375 6.563c.001-.001.002-.001.002-.002-.202.133-1.826 1.209-.002.002z"/></svg>