<svg height="20" viewBox="0 0 20 20" width="20" xmlns="http://www.w3.org/2000/svg"><g style="stroke:#000;stroke-width:2;fill:none;fill-rule:evenodd;stroke-linecap:round;stroke-linejoin:round" transform="translate(-2 -2)"><path d="m17 3v2"/><path d="m7 3v2"/><path d="m17 13v8m4-4h-8"/><path d="m8.03064542 21c-.60514416 0-1.51286041 0-2.72314874 0-.80236687 0-1.09332448-.0781689-1.38665781-.2249539-.29333334-.1467849-.52354305-.3621858-.68041944-.6366497-.15687638-.274464-.24041943-.546705-.24041943-1.2974576v-11.68187758c0-.75075262.08354305-1.02299366.24041943-1.2974576.15687639-.27446394.3870861-.48986484.68041944-.63664976.29333333-.14678492.58429094-.22495386 1.38665781-.22495386h13.38500662c.8023669 0 1.0933245.07816894 1.3866578.22495386.2933334.14678492.5235431.36218582.6804195.63664976.1568763.27446394.2404194 1.38511527.2404194 2.1358679"/></g></svg>